<svg id="Layer_1" data-name="Layer 1" xmlns="http://www.w3.org/2000/svg" viewBox="0 0 1029.28 264.3"><defs><style>.cls-1{fill:#fff;}</style></defs><title>Vector Smart Object</title><path class="cls-1" d="M575.54,174.52c-16.66-3.76-28.67-1.32-30-1.11C528.76,176.29,516,185,508,200.14c-10.75,20.36-12.31,42-6.25,63.82,6.4,22.94,21.85,37.39,45.64,40.86,23,3.36,45.2-3.52,58.34-21.43,15.08-25.39,13.82-53.81,4.12-82.67-7-13.93-18.95-22.72-34.29-26.2m-0.16,86.23c-2.52,8.58-8.44,12.66-16.48,12.81s-14.08-4-16.9-12.37a69.51,69.51,0,0,1-.77-43.65c2.77-8.87,8.4-12.62,17.24-12.65,8.61,0,14.1,3.39,16.75,12.23,4.63,13.76,3.13,33.46.15,43.63m-113-24.27a18.79,18.79,0,0,1-2.53-1.29c13-6,17.68-10.66,19.78-19.41,4.53-18.87-6.24-36.39-27.28-39-20.73-2.6-41.92-1.7-62.89-1.82-6.41,0-8.86,4.66-8.76,10.8,0.19,11.44.38,22.89,0.31,34.32-0.11,23.35-.61,46.7-0.48,70,0.05,10.13,4.43,13.85,14.56,13.87,14.88,0,29.83.87,44.61-.31a92.77,92.77,0,0,0,29.53-7.19c13.4-5.92,19-19.21,17.18-35-1.36-12.05-10-21-24-25m-42.79-36.12c8.74,0.35,18.06-2.14,23.78,5.81,2.21,3.1,2.33,9.91.42,13.32-5.26,9.34-15.2,5.78-24.2,6.75V200.36ZM446,269.57c-6.5,9.78-16.87,6.44-26.61,7.16V246.81c9.62,0.35,19.49-1.9,26.24,6.66,3.81,4.83,3.71,11.06.37,16.11M719.2,254.46c18.56-13.74,24.72-29.59,19.62-49.18-4.18-16.09-18.58-28.59-37.65-30.06-17.76-1.37-35.65-1-53.48-.7-9.17.15-11.75,3.77-11.72,13.15,0.07,15.78.14,31.56,0.07,47.34-0.07,18.3-.54,36.6-0.38,54.89,0.11,10.2,4.39,13.95,14.43,14.06q6.17,0.05,12.34,0c10.18-.09,13.28-3.37,13.24-13.78,0-9.34,0-18.68,0-28.33,6.68-1.78,10.37-.22,13.09,5.83,4,8.93,9.09,17.36,14,25.87,7.82,13.69,22.09,14.43,33.43,9.93,3.64-1.46,6.87-6.59,8.16-10.7,1.39-4.46.3-9.71,0.3-14.43-15.58-1.88-17.57-15.64-25.42-23.88m-18.7-25.13c-6.12,9.8-16.19,7.06-25.73,7.45V201.83c9.28,0.07,18.92-2,25.23,6.84,4.56,6.43,4.67,13.93.5,20.66m282.87,25.09c-5.41-22.6-10.78-45.18-16.46-67.7-2.29-9.1-5.42-11.83-14.08-12.2-11.65-.46-23.34-0.59-35-0.09-10.51.46-12.78,3-15.4,13.08-4.88,19-9.93,37.86-14.89,56.79-4,15.19-8.13,30.34-11.79,45.6-2,8.18,1.13,13.59,7.64,13.92a194.76,194.76,0,0,0,21.95-.08c5.25-.32,8.84-3.23,9.65-8.92,0.58-4.06,1.74-8,2.3-12.07,0.49-3.61,2.07-5,5.84-4.94,8.68,0.23,17.38.08,26.87,0.08,0.7,2.27,1.32,4.2,1.86,6.14,5.21,19.11,6.3,19.94,26.35,19.92,13.12,0,15.7-3.24,12.77-16.26q-3.71-16.65-7.65-33.27m-60.48-2.88c3.61-17.25,7.1-34.19,10.63-51.14H935c3.53,16.88,7,33.77,10.66,51.15H922.9Zm-68.41,29.24c0,0.45.08,0.91,0.11,1.37C856,304,856,304,834.39,304H782.94c-12.91,0-16.7-3.64-16.63-16.73,0.12-27.21.5-54.43,0.68-81.64,0-6.62-.49-13.24-0.51-19.88,0-7.47,2.43-10.74,10-11,16.24-.58,32.46-0.48,48.7-0.54,6.86,0,13.71.13,20.55,0.41,5.76,0.24,8.73,3.35,8.72,9.19,0,3.44.09,6.87,0,10.3-0.11,8.75-2.59,11.28-11.55,11.36-11.84.12-23.7,0-36.11,0v20.25h27.37c8.74,0,10.81,2.08,11,10.88,0.3,15.73.3,15.71-15.14,15.63-7.71,0-15.42,0-23.51,0v20.39c9.68,0,19.17,0,28.65,0,3.68,0,7.34-.36,11,0,4.79,0.45,8.09,2.91,8.33,8.23m243.28,2.36c0.17,4.32-.29,8.69-0.1,13,0.21,5.35-2.71,7.64-7.45,7.66-22.2.13-44.37,0.24-66.58,0-7-.09-11-4.54-11.29-12.12-0.35-9.6-.06-19.21-0.06-28.82q0-37.39,0-74.79c0-10.82,2.15-13.27,13-13.87,4.33-.23,8.69-0.23,13,0,11,0.48,14.94,4.31,15,15.88,0,11.2-.92,22.41-1.05,33.61-0.18,16,0,32,0,48.72,11.72,0,22.87,0,34,0,8.43,0,11.23,2.49,11.55,10.75m-787.5-76-1.34-1.36-88.42-88.4c-6.59-6.6-15-5.41-21.1.73l-126,126c-9.16,9.17-3.29,18.36-.23,21.42l85.27,85.28,2.72,2.71,0.49,0.5h0l11.63,11.62c6.86,6.87,18.43,11.65,28.14,11.63l17.17,0c9.7,0,21.24-4.8,28.1-11.66L259,353.32c6.82-6.86,11.63-18.4,11.65-28.09V315.16l10.05,0c9.7,0,21.24-4.81,28.09-11.66L321,291.3c6.85-6.85,11.64-18.4,11.68-28.09l0-17.2c0-9.7-4.76-21.27-11.62-28.14Zm5.66,56.08c0,5.24-3.07,12.57-6.8,16.29l-12.19,12.19c-3.7,3.71-11,6.75-16.28,6.76l-17,0h-0.16c-0.24,0-.5,0-0.76-0.05-2.39,0-8.78.6-8.8,8.06a2.54,2.54,0,0,1-.07.55c0,0.33.07,0.68,0.07,1l0,17.18c0,5.25-3,12.58-6.74,16.28l-12.22,12.22c-3.7,3.7-11,6.75-16.28,6.76l-17.2,0c-5.24,0-12.58-3-16.28-6.73l-12.12-12.11h0L90.41,259c-3.72-3.7-1.08-7.15,2.61-10.87L203.58,137.56c4.17-4.16,6.61-6.88,13-.49l80.5,80.5h0s0,0,0,0l12.11,12.1c3.72,3.71,6.75,11,6.73,16.28v17.2Zm-47.72-48.86a5.36,5.36,0,0,1,0,7.53l-13.09,13.08a5.34,5.34,0,0,1-7.54,0l-13.07-13.08a5.32,5.32,0,0,0-7.54,0l-13.08,13.08a5.32,5.32,0,0,1-7.53,0l-13.09-13.08a5.31,5.31,0,0,0-7.53,0l-13.08,13.08a5.32,5.32,0,0,1-7.53,0L152,221.85a5.31,5.31,0,0,1,0-7.53L206.36,160a5.3,5.3,0,0,1,7.53,0Zm211,133.11c0.15-1.55,0-4.7,3.25-4.7h6.84c1.3,0,3.35.25,3.8,2.75,0.35,1.5,3.7,15.59,3.7,15.59h0.45s4-14.64,4.25-15.69c0.35-2.6,2.45-2.64,4-2.64h6.54c3.55,0,3.45,2.85,3.5,5,0.15,3,1.7,19.68,2.1,24.23,0.15,2.39,1.4,4.69-3.4,4.69h-3.35c-3.75,0-3.2-2.15-3.4-4.34-0.2-2.8-.8-14.69-1.2-18.84H506c-0.75,3.1-3.3,13.24-3.75,15.63a2.36,2.36,0,0,1-2.55,2.1h-5.19a2.78,2.78,0,0,1-2.8-2.1c-0.6-2.85-3.15-12.79-3.8-15.48h-0.3c-0.2,4.6-.6,16.74-0.7,18.89-0.15,2.45.45,4.14-3.14,4.14H480c-3.55,0-3.8-1.7-3.55-3.84,0.7-5.65,2.49-22.89,2.75-25.43m62.1-5.2c10.39,0,16.09,7.59,15.94,17.49s-5.3,17.48-15.59,17.48c-10.59,0-16.09-7.54-15.94-17.48s5.1-17.49,15.59-17.49m5.35,17.43c0-4.75-1-8.94-5.2-8.94-4.4,0-5.35,4.19-5.29,8.94s1,9,5.29,9,5.25-4.45,5.2-9M566,348.28c-0.05-2.45-1.2-5.54,3.25-5.54H573c3.5,0,3.65,2.64,3.55,4.85-0.1,2.45-.35,9.74-0.25,13.54,0.2,5.19,1.1,7.59,4.35,7.59,3.5,0,4.5-2.25,4.5-7.64,0-4.65,0-10.84-.1-12.79,0-2.45-1.25-5.54,3.2-5.54h3.9c3.5,0,3.6,2.64,3.55,4.85-0.1,2.45-.25,11.19-0.35,13.54-0.45,9.79-3.24,16.09-14.44,16.09-11.84,0-14.59-6.14-14.79-16-0.15-6.65-.15-11.24-0.2-12.89m39.86-.1c0-2.45-1.1-5.44,3.4-5.44h5.45l11.24,15.54h0.45c-0.1-2.25-.5-12.29-0.5-13,0-1.2.1-2.5,3.5-2.5H633c3.49,0,3.55,2.85,3.49,5-0.1,2.45-.65,19.63-0.4,23.17,0.15,2.45,1.35,5.75-3.25,5.75h-3.7c-3,0-3.45-2.3-3.55-4.25,0-2.15-7.34-11.49-9.79-15.39h-0.5c0,3.35.7,12.54,0.8,13.89,0.15,2.45,1.35,5.75-3.3,5.75H609c-3.5,0-3.55-2.89-3.5-5.1,0.25-5.64.35-21.78,0.35-23.43m47.26,2.75c-1.6,0-4.9,0-5.95.1-2.15.2-2.85-.8-2.8-2.75l0.05-3.25c0-1.85.4-2.3,3.1-2.3,0,0,18,.15,22.38-0.15,2.2-.1,2.75,1.11,2.7,3.05l0,3c-0.05,1.85-.4,2.29-3.1,2.29h-5.9c-0.25,6.9-.3,18.59-0.3,20,0,2.45,1.35,5.75-3.25,5.75h-3.84c-3.5,0-3.6-2.85-3.55-5s0.55-15,.5-20.74M677,372c1.55-5.84,6.3-23.23,6.7-25.13,0.55-2.4.65-4.1,4.75-4.1h8c3.15,0,3.9,1.6,4.4,3.79,0.45,2,5.19,21.49,6,25.19,0.5,2.45,1.2,5-2.1,5h-3.45c-3.54,0-3.79-2.69-4.14-3.89-0.2-.55-0.45-1.65-0.85-2.89H688c-0.4,1.39-.7,2.49-0.75,2.84-0.1,2.45-.5,3.95-3.55,3.95H678.9c-2.45,0-2.45-2.64-1.9-4.75m18.14-8.84-2.9-13.84h-0.3c-0.4,2.45-1.69,8.55-2.85,13.84h6Zm21.28-14.64c0-2.45-1.3-5.74,3.35-5.74h3.85c3.5,0,3.55,2.84,3.5,5-0.15,3.54-.6,19.63-0.35,23.18,0.15,2.45,1.35,5.75-3.24,5.75h-3.85c-3.5,0-3.54-2.89-3.5-5.1,0.2-5.64.3-20.28,0.25-23.13m21.78-.3c0-2.45-1.1-5.44,3.4-5.44H747l11.24,15.54h0.45c-0.1-2.25-.5-12.29-0.5-13,0-1.2.1-2.5,3.5-2.5h3.65c3.49,0,3.55,2.85,3.49,5-0.1,2.45-.65,19.63-0.4,23.17,0.15,2.45,1.35,5.75-3.24,5.75h-3.7c-3,0-3.45-2.3-3.55-4.25,0-2.15-7.34-11.49-9.79-15.39h-0.49c0,3.35.7,12.54,0.8,13.89,0.15,2.45,1.35,5.75-3.3,5.75h-3.84c-3.5,0-3.55-2.89-3.5-5.1,0.25-5.64.35-21.78,0.35-23.43m58.15,0.25c0-2.4-1.2-5.7,3.4-5.7h10.34c8.89,0,13.64,4.89,13.44,11.84a10.46,10.46,0,0,1-5.6,9.1l3.1,4.39a3.36,3.36,0,0,0,3.4,1.75c1.35,5.65-1.1,7.4-5.14,7.4-3.5,0-5.1-1.89-6.5-4.75l-3.75-7h-2.45a67.78,67.78,0,0,0,0,7.2c0.2,3-.55,4-3.2,4h-3.8c-3.5,0-3.6-2.89-3.5-5.1,0.15-5.64.35-21.48,0.3-23.18m12.24,10.74c3.45,0,5.2-1.5,5.2-4.65,0-2.2-1.15-4.59-5-4.59h-2.5c-0.1,2.4,0,7.29,0,9.24h2.34Zm25.32-10.69c0-2.45-1.3-5.74,3.35-5.74h16.54c2.65,0,3,1.2,3,3v2.5c0,2-1.1,2.75-3.25,2.7s-5.75,0-9.29,0v5.29c2.79,0,6.49,0,7.6,0a2.14,2.14,0,0,1,2.49,2.25v2.5c0,1.95-.55,2.25-2.25,2.3-1.4,0-5.2,0-8,0,0,2.05,0,3.75,0,5.4,3.25,0,8,0,9.59-.15,2.21-.15,3.15.81,3.15,2.75v3.19c0,1.9-.45,2.3-3.1,2.3H837.16c-3.5,0-3.55-2.89-3.5-5.1,0.2-5.64.3-21.48,0.25-23.13m32.42,21.44a7.73,7.73,0,0,1,1.45-2.95,18.65,18.65,0,0,0,8.94,2.14c2.25,0,3.65-1,3.6-2.59-0.1-1.35-1.15-2.25-4.14-3l-3-.75c-4.7-1.15-7.69-3.5-8-8.94-0.45-7.35,5.1-11.59,12.74-11.59a24,24,0,0,1,8.34,1.35c2.65,1.05,3.3,2.15,2,6.15a13.58,13.58,0,0,1-1.19,2.54,20.88,20.88,0,0,0-8.25-1.95c-2.35,0-3.64.95-3.59,2.6,0.1,1.4,1.25,1.95,3.55,2.55l3.3,0.89c6.59,1.75,8.49,5.15,8.74,9.29,0.5,7.65-5.69,11.54-13.59,11.54a28.28,28.28,0,0,1-8.09-1.2c-3.55-1.25-3.85-2.9-2.8-6.09m47.81-27.68c10.39,0,16.08,7.59,15.93,17.49s-5.29,17.48-15.59,17.48c-10.59,0-16.09-7.54-15.94-17.48s5.1-17.49,15.59-17.49m5.34,17.43c0-4.75-1-8.94-5.19-8.94-4.4,0-5.35,4.19-5.3,8.94s1,9,5.3,9,5.24-4.45,5.19-9m20-11.24c0-2.4-1.2-5.7,3.4-5.7h10.35c8.89,0,13.63,4.89,13.44,11.84a10.46,10.46,0,0,1-5.6,9.1l3.1,4.39a3.36,3.36,0,0,0,3.4,1.75c1.35,5.65-1.1,7.4-5.14,7.4-3.5,0-5.09-1.89-6.49-4.75l-3.75-7h-2.45a66.78,66.78,0,0,0,0,7.2c0.2,3-.55,4-3.2,4h-3.8c-3.5,0-3.6-2.89-3.5-5.1,0.15-5.64.35-21.48,0.3-23.18m12.24,10.74c3.45,0,5.2-1.5,5.2-4.65,0-2.2-1.15-4.59-5-4.59h-2.5c-0.1,2.4,0,7.29,0,9.24h2.34Zm30.68-8.24c-1.6,0-4.89,0-5.95.1-2.15.2-2.85-.8-2.8-2.75l0.05-3.25c0-1.85.4-2.3,3.1-2.3,0,0,18,.15,22.38-0.15,2.2-.1,2.75,1.11,2.7,3.05l0,3c-0.05,1.85-.4,2.29-3.1,2.29h-5.9c-0.25,6.9-.3,18.59-0.3,20,0.05,2.45,1.35,5.75-3.24,5.75h-3.85c-3.5,0-3.6-2.85-3.55-5s0.55-15,.5-20.74" transform="translate(-68.53 -112.91)"/></svg>